<svg width="32" height="32" fill="red" viewBox="0 0 32 32" xmlns="http://www.w3.org/2000/svg" data-testid="live-icon-svg-styled" class="sc-2f2bf267-0 fDrPGa sc-1097f7fe-0 jmthjj"><path id="outer" d="M13.3922 31.3913C6.25751 30.2611 0.846472 24.5392 0.0835577 17.3057C-0.410924 12.714 1.3127 7.95289 4.63278 4.61868C12.2761 -3.01046 25.1467 -0.891255 29.922 8.78645C32.6204 14.2257 31.9988 20.5268 28.2972 25.4293C24.8924 29.922 19.0151 32.2672 13.3922 31.3913ZM19.0858 28.6505C20.329 28.3255 22.2363 27.4778 23.2394 26.7856C24.2142 26.1215 25.8955 24.4686 26.616 23.4655C27.4213 22.3352 28.2972 20.4986 28.6787 19.0999C29.1167 17.4611 29.1167 14.0986 28.6787 12.4597C28.0288 10.0721 26.7573 7.96702 24.963 6.22927C23.6774 5.01426 22.9003 4.4774 21.3745 3.75687C19.3683 2.81029 18.3087 2.59837 15.7939 2.59837C13.2791 2.59837 12.2195 2.81029 10.2134 3.75687C8.68753 4.4774 7.91049 5.01426 6.62484 6.22927C4.83058 7.96702 3.57318 10.0721 2.90916 12.488C2.4712 14.0703 2.4712 17.4893 2.90916 19.0717C3.57318 21.4876 4.83058 23.5926 6.62484 25.3304C8.15067 26.7856 9.35155 27.5344 11.386 28.2973C13.5193 29.1026 16.7829 29.258 19.0858 28.6505Z"></path><path id="inner" d="M13.8318 24.0437C10.5541 23.2949 7.94042 20.6671 7.24815 17.3894C6.42872 13.5042 8.40665 9.57661 12.0658 7.83886C16.2901 5.84681 21.4327 7.72584 23.4389 12.0066C25.6287 16.683 23.1422 22.2918 18.1974 23.8459C16.9965 24.2274 15.0186 24.3122 13.8318 24.0437Z"></path></svg>